# xmcd
#
# Track frame offsets: 
#        150
#        15190
#        30320
#
# Disc length: 420 seconds
#
# Revision: 0
# Processed by: cddbd v1.4PL0 Copyright (c) Steve Scherf et al.
# Submitted via: ExactAudioCopy v0.90a11
#
DISCID=0e01a203
DTITLE=Alabama - God Must Have Spent a Little More Time on You
DYEAR=1900
DGENRE=
TTITLE0=God Must Have Spent a Little More Time on You
TTITLE1=God Must Have Spent a Little More Time on You (w/ 'N Sync)
TTITLE2=God Must Have Spent a Little More Time on You (Suggested Hook)
EXTD=
EXTT0=
EXTT1=
EXTT2=
PLAYORDER=
